<svg width="395" height="300" viewBox="0 0 395 300" fill="none" xmlns="http://www.w3.org/2000/svg">
<path d="M348.017 278.998C347.988 278.875 345.204 266.486 350.89 256.197C356.575 245.908 368.711 241.37 368.833 241.325L369.388 241.122L369.519 241.686C369.548 241.81 372.332 254.199 366.646 264.488C360.961 274.777 348.825 279.315 348.703 279.359L348.148 279.562L348.017 278.998ZM368.627 242.499C366.196 243.519 356.602 247.986 351.8 256.676C346.998 265.367 348.447 275.644 348.909 278.186C351.339 277.168 360.929 272.708 365.736 264.009C370.538 255.319 369.09 245.042 368.627 242.499Z" fill="#3F3D56"/>
<path d="M362.302 260.879C352.084 266.877 348.15 278.792 348.15 278.792C348.15 278.792 360.78 280.981 370.997 274.983C381.214 268.984 385.149 257.069 385.149 257.069C385.149 257.069 372.519 254.88 362.302 260.879Z" fill="#D0CDE1"/>
<path d="M140.316 224.784C139.101 224.784 137.874 224.765 136.669 224.728L136.697 223.875C138.426 223.927 140.192 223.942 141.93 223.918L141.942 224.773C141.401 224.78 140.859 224.784 140.316 224.784ZM147.211 224.586L147.16 223.733C148.892 223.633 150.647 223.493 152.375 223.316L152.467 224.166C150.725 224.344 148.957 224.486 147.211 224.586V224.586ZM131.404 224.453C129.657 224.322 127.892 224.151 126.157 223.943L126.264 223.095C127.986 223.301 129.737 223.471 131.471 223.6L131.404 224.453ZM157.697 223.513L157.565 222.668C159.287 222.413 161.021 222.117 162.719 221.788L162.89 222.626C161.178 222.958 159.431 223.256 157.697 223.513V223.513ZM120.94 223.2C119.214 222.915 117.472 222.587 115.762 222.224L115.948 221.389C117.645 221.749 119.374 222.074 121.086 222.357L120.94 223.2ZM168.037 221.507L167.827 220.677C169.516 220.27 171.215 219.819 172.877 219.338L173.126 220.158C171.452 220.642 169.74 221.096 168.037 221.507ZM110.637 221.017C108.944 220.578 107.24 220.094 105.573 219.58L105.837 218.765C107.492 219.276 109.182 219.755 110.862 220.191L110.637 221.017ZM178.145 218.581L177.858 217.774C179.497 217.217 181.146 216.616 182.76 215.986L183.085 216.78C181.459 217.414 179.798 218.02 178.145 218.581ZM100.57 217.911C98.9262 217.322 97.2718 216.685 95.6536 216.02L95.9935 215.232C97.5994 215.892 99.2409 216.524 100.873 217.109L100.57 217.911ZM187.923 214.763L187.561 213.985C189.135 213.286 190.718 212.541 192.265 211.769L192.663 212.531C191.105 213.308 189.51 214.059 187.923 214.763ZM197.294 210.088L196.86 209.346C198.371 208.505 199.878 207.621 201.34 206.719L201.808 207.441C200.335 208.35 198.816 209.241 197.294 210.088V210.088ZM206.194 204.594L205.693 203.893C207.115 202.924 208.534 201.908 209.91 200.876L210.444 201.554C209.057 202.594 207.627 203.617 206.194 204.594V204.594ZM72.706 203.39C71.2924 202.388 69.8803 201.338 68.5085 200.27L69.0551 199.602C70.4163 200.662 71.8177 201.704 73.2204 202.698L72.706 203.39ZM214.548 198.328L213.984 197.674C215.309 196.583 216.628 195.446 217.904 194.294L218.499 194.921C217.213 196.082 215.884 197.228 214.548 198.328V198.328ZM64.4621 196.966C63.1456 195.841 61.8376 194.671 60.5747 193.488L61.1811 192.871C62.4346 194.045 63.7325 195.207 65.039 196.324L64.4621 196.966ZM222.287 191.342L221.664 190.742C222.886 189.534 224.094 188.283 225.255 187.026L225.906 187.598C224.736 188.865 223.519 190.125 222.287 191.342V191.342ZM56.8546 189.841C55.6467 188.602 54.4538 187.321 53.3089 186.034L53.9705 185.474C55.1066 186.751 56.2903 188.022 57.4892 189.252L56.8546 189.841ZM229.347 183.696L228.67 183.154C229.774 181.843 230.861 180.49 231.901 179.133L232.602 179.644C231.554 181.012 230.459 182.376 229.347 183.696ZM49.9452 182.074C48.8605 180.736 47.7924 179.355 46.7706 177.969L47.4813 177.47C48.4955 178.845 49.5554 180.216 50.632 181.544L49.9452 182.074ZM235.665 175.451L234.941 174.971C235.918 173.568 236.874 172.123 237.784 170.677L238.53 171.124C237.613 172.581 236.649 174.037 235.665 175.451ZM43.7919 173.729C42.8376 172.301 41.9036 170.832 41.0156 169.362L41.77 168.928C42.6514 170.387 43.5783 171.845 44.5254 173.262L43.7919 173.729ZM241.19 166.673L240.423 166.26C241.264 164.775 242.081 163.25 242.852 161.727L243.637 162.106C242.86 163.64 242.037 165.177 241.19 166.673H241.19ZM245.867 157.434L245.065 157.091C245.763 155.535 246.433 153.942 247.057 152.356L247.874 152.663C247.246 154.261 246.57 155.866 245.867 157.434H245.867ZM33.9583 155.589C33.2869 154.017 32.6439 152.408 32.0473 150.807L32.8706 150.515C33.4624 152.104 34.1005 153.7 34.7666 155.261L33.9583 155.589ZM249.654 147.805L248.823 147.536C249.369 145.929 249.885 144.286 250.355 142.653L251.199 142.885C250.725 144.53 250.205 146.186 249.654 147.805V147.805ZM30.3603 145.932C29.8392 144.303 29.3495 142.639 28.905 140.986L29.7521 140.769C30.1933 142.41 30.6793 144.061 31.1963 145.677L30.3603 145.932ZM252.509 137.9L251.656 137.706C252.048 136.059 252.406 134.377 252.721 132.707L253.583 132.862C253.265 134.545 252.904 136.239 252.509 137.9ZM27.6853 135.979C27.3201 134.31 26.9895 132.61 26.703 130.924L27.5668 130.784C27.8514 132.457 28.1795 134.144 28.5419 135.801L27.6853 135.979ZM254.417 127.781L253.549 127.665C253.785 125.991 253.984 124.285 254.141 122.592L255.013 122.669C254.855 124.375 254.654 126.095 254.417 127.781ZM25.9593 125.83C25.7527 124.138 25.5832 122.415 25.4551 120.709L26.3288 120.646C26.4556 122.34 26.6241 124.05 26.8291 125.729L25.9593 125.83ZM255.37 117.536L254.495 117.497C254.573 115.804 254.612 114.086 254.612 112.392H255.488C255.488 114.099 255.448 115.83 255.37 117.536ZM25.1897 115.569C25.1598 114.521 25.1446 113.452 25.1444 112.392C25.1444 111.734 25.1502 111.078 25.1617 110.423L26.0375 110.438C26.026 111.088 26.0202 111.739 26.0202 112.392C26.0204 113.444 26.0356 114.505 26.0651 115.546L25.1897 115.569ZM26.2454 105.335L25.3712 105.282C25.4805 103.574 25.6315 101.849 25.8194 100.155L26.6901 100.247C26.5035 101.928 26.354 103.64 26.2454 105.335H26.2454ZM254.047 100.121C253.872 98.4358 253.631 97.6143 253.377 95.9366L254.244 95.8118C254.499 97.5022 254.719 98.7926 254.895 100.49L254.047 100.121ZM27.372 95.1844L26.5065 95.0538C26.7748 93.363 27.0866 91.6588 27.4332 89.988L28.2915 90.1575C27.9477 91.8155 27.6382 93.5067 27.372 95.1844H27.372ZM252.493 90.9043C252.159 89.237 251.783 87.5587 251.373 85.9161L252.224 85.7141C252.637 87.3693 253.016 89.0605 253.353 90.7403L252.493 90.9043ZM29.4466 85.1772L28.597 84.9694C29.0223 83.3141 29.4934 81.645 29.9972 80.0082L30.8358 80.254C30.3361 81.8783 29.8687 83.5346 29.4466 85.1772ZM250.018 80.9835C249.53 79.3561 248.996 77.7191 248.432 76.1174L249.26 75.8395C249.829 77.4535 250.367 79.1034 250.859 80.7431L250.018 80.9835ZM32.4615 75.3852L31.6353 75.1019C32.2173 73.4862 32.8458 71.8627 33.5031 70.2767L34.3152 70.5972C33.6628 72.1709 33.0391 73.7821 32.4615 75.3852V75.3852ZM246.617 71.3277C245.978 69.7548 245.294 68.1762 244.583 66.6357L245.382 66.2847C246.098 67.8372 246.788 69.4278 247.431 71.0126L246.617 71.3277ZM36.3925 65.8993L35.5966 65.5425C36.3281 63.9879 37.1067 62.429 37.9107 60.9091L38.689 61.3009C37.891 62.8094 37.1184 64.3564 36.3925 65.8993ZM242.331 62.038C241.547 60.5291 240.716 59.0171 239.862 57.5446L240.624 57.1235C241.485 58.6075 242.322 60.131 243.111 61.6515L242.331 62.038ZM41.1995 56.8117L40.4404 56.3852C41.3141 54.9047 42.2355 53.4228 43.1791 51.9809L43.9173 52.4408C42.9809 53.8719 42.0664 55.3425 41.1995 56.8117ZM237.185 53.1643C236.26 51.7266 235.291 50.2943 234.305 48.9071L235.024 48.4201C236.018 49.8179 236.994 51.261 237.927 52.7098L237.185 53.1643ZM46.8368 48.197L46.121 47.7046C47.1306 46.3071 48.1863 44.9143 49.2593 43.5646L49.9512 44.0884C48.8866 45.428 47.8386 46.8102 46.8368 48.197ZM231.227 44.7816C230.172 43.4326 229.073 42.0915 227.96 40.7957L228.631 40.2467C229.753 41.5525 230.86 42.9036 231.924 44.2628L231.227 44.7816ZM53.2538 40.124L52.5871 39.5698C53.7201 38.271 54.9011 36.9783 56.097 35.7276L56.7372 36.3106C55.5505 37.552 54.3785 38.835 53.2538 40.124ZM224.509 36.9581C223.333 35.7084 222.112 34.4698 220.883 33.277L221.5 32.6707C222.739 33.8728 223.969 35.1206 225.154 36.3797L224.509 36.9581ZM60.3938 32.6573L59.7814 32.0463C61.0338 30.8507 62.3298 29.6686 63.6331 28.533L64.2164 29.1707C62.923 30.2975 61.6368 31.4706 60.3938 32.6573V32.6573ZM217.088 29.76C215.799 28.6188 214.467 27.4933 213.131 26.4147L213.69 25.7561C215.036 26.8429 216.377 27.977 217.676 29.1269L217.088 29.76ZM68.1968 25.8575L67.6438 25.1948C68.9984 24.1183 70.3983 23.0566 71.8049 22.0392L72.3266 22.7257C70.9306 23.7356 69.5411 24.7892 68.1968 25.8575H68.1968ZM76.5969 19.7818L76.1081 19.0728C77.5579 18.1209 79.0504 17.1888 80.5444 16.3017L80.9994 17.0321C79.517 17.9122 78.0358 18.8374 76.597 19.7818H76.5969ZM85.525 14.4822L85.1047 13.7322C86.6384 12.9132 88.2111 12.1186 89.7789 11.3701L90.1638 12.138C88.608 12.8807 87.0473 13.6692 85.525 14.4822ZM191.225 12.5019C189.667 11.7443 188.07 11.0123 186.48 10.3264L186.834 9.54473C188.437 10.2358 190.045 10.9735 191.616 11.737L191.225 12.5019ZM94.906 10.0044L94.5579 9.22025C96.1608 8.5423 97.8004 7.8921 99.431 7.2876L99.7419 8.08679C98.1237 8.6865 96.4967 9.33169 94.906 10.0044ZM181.636 8.36577C180.014 7.75211 178.355 7.16658 176.703 6.62571L176.981 5.81526C178.646 6.3605 180.318 6.9504 181.953 7.56909L181.636 8.36577ZM104.675 6.38429L104.403 5.57217C106.067 5.03966 107.765 4.53823 109.45 4.0823L109.684 4.90569C108.012 5.35828 106.327 5.85576 104.675 6.38429H104.675ZM171.704 5.11352C170.034 4.64883 168.33 4.21605 166.64 3.82731L166.841 2.99558C168.544 3.38724 170.261 3.82334 171.945 4.29138L171.704 5.11352ZM114.757 3.65391L114.562 2.82071C116.268 2.44031 118.007 2.09372 119.728 1.79074L119.884 2.63166C118.175 2.93255 116.45 3.27644 114.757 3.65391ZM161.521 2.77063C159.816 2.45824 158.078 2.18032 156.358 1.94453L156.479 1.09818C158.213 1.33585 159.964 1.61588 161.683 1.93055L161.521 2.77063ZM125.053 1.84061L124.937 0.993431C126.671 0.767656 128.434 0.577771 130.178 0.429618L130.254 1.28097C128.524 1.42829 126.774 1.61649 125.053 1.84061ZM151.16 1.35025C149.435 1.19166 147.679 1.06938 145.941 0.98738L145.984 0.133523C147.735 0.216364 149.504 0.339475 151.242 0.499332L151.16 1.35025ZM135.477 0.953159L135.44 0.0993213C137.049 0.0338006 138.69 0.000418799 140.316 0L140.713 0.000622735L140.71 0.855315L140.316 0.854692C138.702 0.855089 137.074 0.888262 135.477 0.953159V0.953159Z" fill="#3F3D56"/>
<path d="M395 278.755H74.0078V279.609H395V278.755Z" fill="#3F3D56"/>
<path d="M261.878 135.052L266.258 201.291C266.258 201.291 276.767 227.359 276.33 252.145C276.33 252.145 272.388 261.974 275.454 263.683C278.519 265.393 280.271 266.675 278.519 267.957C276.767 269.239 275.454 272.23 276.767 273.085C278.081 273.94 278.519 275.222 278.081 275.222H264.944C264.944 275.222 267.571 268.811 263.63 267.102C259.689 265.393 261.878 261.119 261.878 261.119L232.538 177.359L209.328 254.282C209.328 254.282 213.27 256.846 210.204 258.128C207.139 259.41 205.825 256.846 207.139 259.41C208.453 261.974 206.701 263.256 206.701 263.683C206.701 264.111 193.564 262.401 193.564 262.401C193.564 262.401 200.132 256.846 197.067 255.564C194.001 254.282 192.688 253 193.564 252.145C194.439 251.29 197.943 243.171 197.943 243.171C197.943 243.171 199.694 212.402 200.132 211.12C200.57 209.838 200.132 203.855 200.132 200.863C200.132 197.872 199.694 185.906 201.008 182.915C202.322 179.923 203.636 143.172 210.642 138.898C217.649 134.625 261.878 135.052 261.878 135.052Z" fill="#2F2E41"/>
<path d="M206.263 261.546C206.263 261.546 215.021 279.068 208.891 281.204C202.76 283.341 194.877 281.632 193.126 284.196C191.374 286.76 172.106 289.751 171.668 283.341C171.23 276.931 192.688 264.965 192.688 264.965L195.483 260.573L206.263 261.546Z" fill="#2F2E41"/>
<path d="M277.205 274.367C277.205 274.367 285.964 291.888 279.833 294.025C273.702 296.162 265.82 294.452 264.068 297.016C262.316 299.58 243.048 302.572 242.61 296.162C242.172 289.751 263.63 277.786 263.63 277.786L266.425 273.393L277.205 274.367Z" fill="#2F2E41"/>
<path d="M236.698 54.4974C244.679 54.4974 251.149 48.1835 251.149 40.395C251.149 32.6064 244.679 26.2925 236.698 26.2925C228.717 26.2925 222.247 32.6064 222.247 40.395C222.247 48.1835 228.717 54.4974 236.698 54.4974Z" fill="#A0616A"/>
<path d="M246.552 47.8734L244.8 60.2665L231.662 70.0954L228.159 65.3946V49.1555L246.552 47.8734Z" fill="#A0616A"/>
<path d="M225.969 63.6853C225.969 63.6853 239.545 64.9673 246.551 60.2665L260.565 141.035C260.565 141.035 211.08 144.881 208.891 142.317V117.104L217.649 76.0783L225.969 63.6853Z" fill="#3F3D56"/>
<path d="M245.345 56.405L250.055 60.2665C250.055 60.2665 269.323 63.258 268.009 68.3861L262.754 129.069L264.506 149.582C264.506 149.582 249.617 145.736 238.231 149.582C226.845 153.428 235.891 66.9317 235.891 66.9317C235.891 66.9317 246.329 57.6715 245.345 56.405Z" fill="#D0CDE1"/>
<path d="M228.159 61.0825C228.159 61.0825 214.146 70.9502 212.394 77.3604C210.642 83.7705 204.949 151.291 204.949 151.291C204.949 151.291 207.577 150.009 208.891 152.146C210.204 154.283 230.348 64.4626 228.159 61.0825Z" fill="#D0CDE1"/>
<path d="M222.254 39.7805C222.254 39.7805 220.689 37.4905 221.291 35.0243C221.651 33.6242 221.793 32.1792 221.712 30.7379C221.712 30.7379 222.976 26.7451 224.24 24.5138C225.503 22.2825 224.901 21.343 228.873 20.6384C232.844 19.9338 231.219 14.884 241.689 20.3448C242.042 20.8261 242.534 21.1945 243.101 21.4035C243.669 21.6125 244.287 21.6527 244.878 21.5191C247.044 21.1081 247.826 24.044 247.826 24.044C247.826 24.044 249.27 23.222 249.812 24.3963C250.354 25.5707 254.215 23.6915 254.215 31.6185C254.215 39.5454 249.821 46.6262 249.821 46.6262C249.821 46.6262 250.143 33.2922 242.983 31.9416C235.822 30.5911 228.121 26.657 226.255 31.7068C225.248 34.541 223.905 37.2506 222.254 39.7805V39.7805Z" fill="#2F2E41"/>
<path d="M249.978 42.9509C250.758 42.9509 251.39 42.1281 251.39 41.1132C251.39 40.0983 250.758 39.2755 249.978 39.2755C249.198 39.2755 248.565 40.0983 248.565 41.1132C248.565 42.1281 249.198 42.9509 249.978 42.9509Z" fill="#A0616A"/>
<path d="M190.625 173.267C187.16 171.234 182.982 171.389 181.393 171.544C181.998 172.986 183.813 176.661 187.278 178.696C190.752 180.735 194.925 180.575 196.511 180.42C195.906 178.98 194.091 175.302 190.625 173.267Z" fill="#D0CDE1"/>
<path d="M206.908 213.619H185.251C183.958 213.619 182.719 214.12 181.805 215.012C180.891 215.903 180.378 217.113 180.378 218.374C180.378 219.635 180.891 220.845 181.805 221.737C182.719 222.629 183.958 223.13 185.251 223.13H206.908C208.2 223.128 209.438 222.627 210.351 221.735C211.264 220.843 211.777 219.635 211.777 218.374C211.777 217.114 211.264 215.905 210.351 215.013C209.438 214.122 208.2 213.62 206.908 213.619Z" fill="#D0CDE1"/>
<path d="M304.981 163.424H183.554C182.141 163.424 180.743 163.695 179.438 164.223C178.133 164.75 176.947 165.523 175.948 166.498C174.949 167.473 174.157 168.63 173.616 169.904C173.076 171.177 172.798 172.542 172.798 173.92V231.654C172.798 234.438 173.931 237.108 175.948 239.077C177.965 241.045 180.701 242.151 183.554 242.151H304.981C306.394 242.151 307.792 241.879 309.097 241.352C310.402 240.824 311.588 240.051 312.587 239.077C313.586 238.102 314.378 236.945 314.919 235.671C315.459 234.398 315.737 233.033 315.737 231.654V173.92C315.737 172.542 315.459 171.177 314.919 169.904C314.378 168.63 313.586 167.473 312.587 166.498C311.588 165.523 310.402 164.75 309.097 164.223C307.792 163.695 306.394 163.424 304.981 163.424ZM180.55 170.584C180.789 170.542 186.475 169.598 191.183 172.362C195.891 175.126 197.7 180.471 197.775 180.697L197.965 181.274L197.354 181.38C196.483 181.512 195.601 181.576 194.719 181.568C192.581 181.568 189.483 181.223 186.72 179.601C182.012 176.837 180.203 171.492 180.129 171.266L179.939 170.69L180.55 170.584ZM206.908 224.186H185.251C183.671 224.186 182.156 223.574 181.039 222.484C179.922 221.394 179.295 219.916 179.295 218.374C179.295 216.833 179.922 215.354 181.039 214.265C182.156 213.175 183.671 212.562 185.251 212.562H206.908C208.488 212.562 210.003 213.175 211.12 214.265C212.237 215.354 212.864 216.833 212.864 218.374C212.864 219.916 212.237 221.394 211.12 222.484C210.003 223.574 208.488 224.186 206.908 224.186V224.186ZM305.45 223.13C305.445 224.81 304.759 226.42 303.542 227.608C302.324 228.796 300.674 229.465 298.953 229.47H282.71C280.988 229.465 279.338 228.796 278.121 227.608C276.904 226.42 276.217 224.81 276.212 223.13V213.619C276.217 211.939 276.904 210.329 278.121 209.141C279.338 207.953 280.988 207.283 282.71 207.279H298.953C300.674 207.283 302.324 207.953 303.542 209.141C304.759 210.329 305.445 211.939 305.45 213.619L305.45 223.13Z" fill="#D0CDE1"/>
<path d="M287.853 221.28H280.815C280.312 221.28 279.83 221.475 279.475 221.822C279.119 222.169 278.92 222.639 278.92 223.13C278.92 223.62 279.119 224.09 279.475 224.437C279.83 224.784 280.312 224.979 280.815 224.979H287.853C288.356 224.979 288.838 224.784 289.193 224.437C289.549 224.09 289.748 223.62 289.748 223.13C289.748 222.639 289.549 222.169 289.193 221.822C288.838 221.475 288.356 221.28 287.853 221.28V221.28ZM287.853 223.922H280.815C280.708 223.922 280.602 223.902 280.503 223.862C280.404 223.823 280.315 223.764 280.239 223.691C280.163 223.617 280.104 223.53 280.063 223.433C280.022 223.337 280.001 223.234 280.001 223.13C280.001 223.025 280.022 222.922 280.063 222.826C280.104 222.73 280.163 222.642 280.239 222.569C280.315 222.495 280.404 222.437 280.503 222.397C280.602 222.357 280.708 222.337 280.815 222.337H287.853C287.96 222.337 288.066 222.357 288.165 222.397C288.263 222.437 288.353 222.495 288.429 222.569C288.504 222.642 288.564 222.73 288.605 222.826C288.646 222.922 288.667 223.025 288.667 223.13C288.667 223.234 288.646 223.337 288.605 223.433C288.564 223.53 288.504 223.617 288.429 223.691C288.353 223.764 288.263 223.823 288.165 223.862C288.066 223.902 287.96 223.922 287.853 223.922V223.922Z" fill="#D0CDE1"/>
<path d="M300.848 221.28H293.809C293.56 221.28 293.313 221.327 293.083 221.42C292.853 221.513 292.644 221.649 292.467 221.821C292.291 221.993 292.151 222.197 292.056 222.421C291.96 222.646 291.911 222.886 291.911 223.13C291.911 223.373 291.96 223.613 292.056 223.838C292.151 224.063 292.291 224.266 292.467 224.438C292.644 224.61 292.853 224.746 293.083 224.839C293.313 224.932 293.56 224.979 293.809 224.979H300.848C301.35 224.979 301.832 224.784 302.188 224.437C302.543 224.09 302.743 223.62 302.743 223.13C302.743 222.639 302.543 222.169 302.188 221.822C301.832 221.475 301.35 221.28 300.848 221.28ZM300.848 223.922H293.809C293.702 223.922 293.597 223.902 293.498 223.862C293.399 223.823 293.309 223.764 293.234 223.691C293.158 223.617 293.098 223.53 293.057 223.433C293.016 223.337 292.995 223.234 292.995 223.13C292.995 223.025 293.016 222.922 293.057 222.826C293.098 222.73 293.158 222.642 293.234 222.569C293.309 222.495 293.399 222.437 293.498 222.397C293.597 222.357 293.702 222.337 293.809 222.337H300.848C301.063 222.338 301.269 222.421 301.421 222.57C301.573 222.718 301.658 222.92 301.658 223.13C301.658 223.339 301.573 223.541 301.421 223.689C301.269 223.838 301.063 223.922 300.848 223.922V223.922Z" fill="#D0CDE1"/>
<path d="M287.853 216.525H280.815C280.312 216.525 279.83 216.72 279.475 217.067C279.119 217.413 278.92 217.884 278.92 218.374C278.92 218.865 279.119 219.335 279.475 219.682C279.83 220.029 280.312 220.224 280.815 220.224H287.853C288.102 220.224 288.349 220.176 288.579 220.084C288.81 219.991 289.019 219.855 289.195 219.683C289.371 219.511 289.511 219.307 289.607 219.083C289.702 218.858 289.751 218.617 289.751 218.374C289.751 218.131 289.702 217.89 289.607 217.666C289.511 217.441 289.371 217.237 289.195 217.066C289.019 216.894 288.81 216.758 288.579 216.665C288.349 216.572 288.102 216.525 287.853 216.525V216.525ZM287.853 219.167H280.815C280.599 219.167 280.393 219.083 280.24 218.935C280.088 218.786 280.002 218.584 280.002 218.374C280.002 218.164 280.088 217.962 280.24 217.814C280.393 217.665 280.599 217.582 280.815 217.582H287.853C288.069 217.582 288.275 217.665 288.428 217.814C288.58 217.962 288.665 218.164 288.665 218.374C288.665 218.584 288.58 218.786 288.428 218.935C288.275 219.083 288.069 219.167 287.853 219.167V219.167Z" fill="#D0CDE1"/>
<path d="M300.848 216.525H293.809C293.56 216.525 293.313 216.572 293.083 216.665C292.853 216.758 292.644 216.894 292.467 217.066C292.291 217.237 292.151 217.441 292.056 217.666C291.96 217.89 291.911 218.131 291.911 218.374C291.911 218.617 291.96 218.858 292.056 219.083C292.151 219.307 292.291 219.511 292.467 219.683C292.644 219.855 292.853 219.991 293.083 220.084C293.313 220.176 293.56 220.224 293.809 220.224H300.848C301.35 220.224 301.832 220.029 302.188 219.682C302.543 219.335 302.743 218.865 302.743 218.374C302.743 217.884 302.543 217.413 302.188 217.067C301.832 216.72 301.35 216.525 300.848 216.525ZM300.848 219.167H293.809C293.594 219.167 293.387 219.083 293.235 218.935C293.083 218.786 292.997 218.584 292.997 218.374C292.997 218.164 293.083 217.962 293.235 217.814C293.387 217.665 293.594 217.582 293.809 217.582H300.848C301.063 217.582 301.27 217.665 301.422 217.814C301.574 217.962 301.66 218.164 301.66 218.374C301.66 218.584 301.574 218.786 301.422 218.935C301.27 219.083 301.063 219.167 300.848 219.167Z" fill="#D0CDE1"/>
<path d="M287.853 211.77H280.815C280.312 211.77 279.83 211.964 279.475 212.311C279.119 212.658 278.92 213.128 278.92 213.619C278.92 214.109 279.119 214.58 279.475 214.927C279.83 215.273 280.312 215.468 280.815 215.468H287.853C288.356 215.468 288.838 215.273 289.193 214.927C289.549 214.58 289.748 214.109 289.748 213.619C289.748 213.128 289.549 212.658 289.193 212.311C288.838 211.964 288.356 211.77 287.853 211.77V211.77ZM287.853 214.412H280.815C280.599 214.412 280.393 214.328 280.24 214.179C280.088 214.031 280.002 213.829 280.002 213.619C280.002 213.409 280.088 213.207 280.24 213.059C280.393 212.91 280.599 212.826 280.815 212.826H287.853C288.069 212.826 288.275 212.91 288.428 213.059C288.58 213.207 288.665 213.409 288.665 213.619C288.665 213.829 288.58 214.031 288.428 214.179C288.275 214.328 288.069 214.412 287.853 214.412V214.412Z" fill="#D0CDE1"/>
<path d="M300.848 211.77H293.809C293.56 211.769 293.313 211.817 293.083 211.91C292.853 212.002 292.644 212.139 292.467 212.31C292.291 212.482 292.151 212.686 292.056 212.911C291.96 213.135 291.911 213.376 291.911 213.619C291.911 213.862 291.96 214.103 292.056 214.327C292.151 214.552 292.291 214.756 292.467 214.928C292.644 215.099 292.853 215.235 293.083 215.328C293.313 215.421 293.56 215.469 293.809 215.468H300.848C301.35 215.467 301.831 215.272 302.186 214.926C302.541 214.579 302.74 214.109 302.74 213.619C302.74 213.129 302.541 212.659 302.186 212.312C301.831 211.966 301.35 211.77 300.848 211.77V211.77ZM300.848 214.412H293.809C293.594 214.412 293.387 214.328 293.235 214.179C293.083 214.031 292.997 213.829 292.997 213.619C292.997 213.409 293.083 213.207 293.235 213.059C293.387 212.91 293.594 212.826 293.809 212.826H300.848C301.063 212.826 301.27 212.91 301.422 213.059C301.574 213.207 301.66 213.409 301.66 213.619C301.66 213.829 301.574 214.031 301.422 214.179C301.27 214.328 301.063 214.412 300.848 214.412Z" fill="#D0CDE1"/>
<path d="M266.695 150.437L263.556 160.433C263.556 160.433 262.754 179.069 252.244 176.505C241.734 173.941 255.31 152.146 255.31 152.146L258.375 147.445L266.695 150.437Z" fill="#A0616A"/>
<path d="M207.139 150.437L204 160.433C204 160.433 203.198 179.069 192.688 176.505C182.178 173.941 195.753 152.146 195.753 152.146L198.818 147.445L207.139 150.437Z" fill="#A0616A"/>
<path d="M264.506 65.3947C264.506 65.3947 271.513 63.6853 273.702 75.2237C275.892 86.762 278.519 119.668 278.519 119.668L268.009 154.283C268.009 154.283 257.499 148.727 255.31 149.582L263.58 119.531L256.623 88.8987C256.623 88.8987 262.754 65.3947 264.506 65.3947Z" fill="#D0CDE1"/>
<path opacity="0.15" d="M254.318 89.4833L263.515 119.397L254.318 149.739L259.573 119.397L254.318 89.4833Z" fill="black"/>
<path d="M212.394 88.8987L196.629 149.582C196.629 149.582 204.945 152.26 208.01 154.397L212.394 88.8987Z" fill="#D0CDE1"/>
<path d="M47.0156 241.401C71.201 241.401 90.8072 222.268 90.8072 198.666C90.8072 175.065 71.201 155.932 47.0156 155.932C22.8302 155.932 3.224 175.065 3.224 198.666C3.224 222.268 22.8302 241.401 47.0156 241.401Z" fill="#3F3D56"/>
<path opacity="0.1" d="M47.0156 235.418C67.8151 235.418 84.6764 218.964 84.6764 198.666C84.6764 178.369 67.8151 161.915 47.0156 161.915C26.2162 161.915 9.35486 178.369 9.35486 198.666C9.35486 218.964 26.2162 235.418 47.0156 235.418Z" fill="black"/>
<path d="M45.211 220.353V215.004C42.4402 214.952 39.5737 213.998 37.9017 212.674L39.0482 209.126C41.0352 210.579 43.4448 211.376 45.9276 211.403C49.3196 211.403 51.6127 209.231 51.6127 206.213C51.6127 203.3 49.7495 201.499 46.2143 199.91C41.3413 197.792 38.3316 195.355 38.3316 190.748C38.3316 186.352 41.1503 183.015 45.5455 182.221V176.872H48.5074V182.009C50.716 182.039 52.8704 182.682 54.7181 183.863L53.5236 187.358C51.7515 186.175 49.6516 185.546 47.5042 185.558C43.8257 185.558 42.4402 187.994 42.4402 190.112C42.4402 192.866 44.2078 194.243 48.3642 196.15C53.2847 198.374 55.7691 201.128 55.7691 205.842C55.7691 210.026 53.1415 213.945 48.2207 214.845V220.353H45.211Z" fill="#6C63FF"/>
<path d="M93.2761 285.592C62.3551 290.092 30.9211 290.092 0 285.592V275.336C30.9539 279.381 62.3222 279.381 93.2761 275.336V285.592Z" fill="#3F3D56"/>
<path d="M93.2761 269.78C62.3551 274.28 30.9211 274.28 0 269.78V259.524C30.9539 263.569 62.3222 263.569 93.2761 259.524V269.78Z" fill="#3F3D56"/>
<path d="M93.2761 253.968C62.3551 258.468 30.9211 258.468 0 253.968V243.712C30.9539 247.758 62.3222 247.758 93.2761 243.712V253.968Z" fill="#3F3D56"/>
</svg>
